# xmcd
#
# Track frame offsets:
# 150
# 15827
# 30630
# 46981
# 61111
# 80388
# 91536
# 109046
# 126445
# 145342
#
# Disc length: 2138 seconds
#
#
# Revision: 0
# Processed by: cddbd v1.5PL3 Copyright (c) Steve Scherf et al.
# Submitted via: FreeRIP 2.60 
#
DISCID=7008580a
DTITLE=The Ascensions - On A Journey
DYEAR=2004
DGENRE=Gospel
TTITLE0=On A Journey
TTITLE1=Three Wooden Crosses
TTITLE2=Lets Feel That Spirit
TTITLE3=His Blood Still Covers Me
TTITLE4=The Old Rugged Cross
TTITLE5=Carried Away
TTITLE6=The Blood Is Still There
TTITLE7=I Wanna Know How It Feels
TTITLE8=Always And Forever
TTITLE9=God Can Move That Mountain
EXTD=
EXTT0=
EXTT1=
EXTT2=
EXTT3=
EXTT4=
EXTT5=
EXTT6=
EXTT7=
EXTT8=
EXTT9=
PLAYORDER=
